<?xml version="1.0" encoding="utf-8"?>
<!-- Generator: Adobe Illustrator 16.0.0, SVG Export Plug-In . SVG Version: 6.00 Build 0)  -->
<!DOCTYPE svg PUBLIC "-//W3C//DTD SVG 1.1//EN" "http://www.w3.org/Graphics/SVG/1.1/DTD/svg11.dtd">
<svg version="1.1" id="Layer_1" xmlns="http://www.w3.org/2000/svg" xmlns:xlink="http://www.w3.org/1999/xlink" x="0px" y="0px"
	 width="1024px" height="768px" viewBox="0 0 1024 768" enable-background="new 0 0 1024 768" xml:space="preserve">
<g>
	<g>
		<path fill="#DBEBF8" d="M386.28,373.174c0-6.472,4.122-8.466,8.248-8.31c0,0,18.339,0.831,19.411,0.978v4.505h-18.86
			c-3.177,0-3.177,1.771-3.177,3.424v10.791l19.5,0.62v4.539l-19.5,0.602v10.791c0.051,3.24,2.015,3.178,3.787,3.178h18.25v4.445
			c-0.946,0.129-18.798,1.038-18.798,1.038c-4.021,0.227-8.861-0.776-8.861-8.047V373.174z"/>
		<path fill="#DBEBF8" d="M419.83,377.144h4.186l1.434,3.7c3.473-2.102,6.571-4.248,11.521-4.248c6.77,0,9.928,5.065,9.928,10.662
			v22.333h-5.623v-22.369c0-3.812-2.125-5.462-4.976-5.462c-4.493,0-6.74,1.131-10.851,3.297v24.534h-5.62V377.144z"/>
		<path fill="#DBEBF8" d="M466.122,376.901c8.115,0,12.769,0.826,12.769,11.581c0,4.998-2.687,7.638-8.553,7.638h-12.771
			c0,7.151,1.625,8.624,6.357,8.624c5.437,0,9.777,0.051,14.357-0.619v4.062c-4.847,1.487-10.57,1.713-15.643,1.713
			c-8.248,0-10.692-4.193-10.692-16.683C451.946,378.881,456.028,376.901,466.122,376.901z M469.734,391.198
			c2.44,0,3.537-0.95,3.537-2.836c0-5.784-1.049-6.39-6.97-6.39c-6.251,0-8.753,0.115-8.735,9.226H469.734z"/>
		<path fill="#DBEBF8" d="M484.596,377.144h4.278l1.345,4.094c3.323-2.148,6.594-4.45,11.337-4.45c1.671,0,3.507,0.103,4.276,0.461
			v5.496c-0.769-0.156-2.777-0.312-4.569-0.312c-4.521,0-7.043,1.09-11.043,3.564v23.593h-5.623V377.144z"/>
		<path fill="#DBEBF8" d="M513.389,397.51c-2.689-1.71-3.555-5.701-3.555-8.937c0-7.762,4.005-11.548,10.754-11.548h19.248v3.878
			l-4.583,1.102c0.645,1.299,1.712,2.538,1.712,6.844c0,3.938-1.554,11.64-10.357,11.64h-8.982c-0.978,0-2.496,0.18-2.496,1.722
			s1.14,1.96,2.496,1.96h12.182c5.27,0,8.35,3.277,8.35,8.753v3.757c0,3.94-1.437,9.411-9.441,9.411h-9.166
			c-5.742,0-9.869-3.038-9.869-9.411v-4.899l2.557-3.697c-1.712-1.15-2.501-3.264-2.501-5.309
			C509.735,400.612,510.846,398.093,513.389,397.51z M520.182,420.928h8.047c3.46,0,4.314-1.882,4.314-4.486v-3.225
			c0-2.587-0.666-3.869-3.888-3.874h-10.64c-1.703,0-2.703-0.418-2.703-0.418v7.47C515.312,420.517,518.043,420.928,520.182,420.928
			z M520.618,395.325h5.292c4.438,0,5.535-3.862,5.432-6.752c-0.153-4.03-1.158-6.387-5.491-6.387h-4.896
			c-4.588,0-5.498,3.282-5.498,6.387C515.457,391.565,516.372,395.325,520.618,395.325z"/>
		<path fill="#DBEBF8" d="M548.176,377.144l7.257,24.634c0.991,3.245,3.727,2.375,3.823,2.385l8.528-27.019h6.113l-13.462,42.714
			l-4.546,6.232h-3.709l5.423-16.5c-2.162,0-6.068-0.707-7.966-7.143l-7.512-25.304H548.176z"/>
		<path fill="#DBEBF8" d="M593.274,364.375c4.021,0,10.669,0.698,15.094,1.666v4.448c-0.064,0-8.821-0.675-14.546-0.675
			c-7.261,0-9.918,2.924-9.918,17.415c0,10.02,2.098,17.29,9.928,17.29c6.416,0,14.536-0.445,14.536-0.445v4.448
			c-4.204,0.913-11.036,1.464-15.094,1.437c-11.303-0.028-14.993-9.433-14.993-22.854
			C578.281,372.807,581.113,364.375,593.274,364.375z"/>
		<path fill="#DBEBF8" d="M612.614,398.193c0-4.842,2.919-8.34,8.503-8.34c0,0,12.464,0.064,12.464,0c0,0,0.062-3.481,0-3.543
			c0-3.654-1.864-4.735-4.827-4.735c-3.968,0-10.054,0.36-15.094,0.723v-3.839c4.321-1.343,9.494-1.873,15.544-1.926
			c5.593-0.05,9.999,2.607,9.999,9.685v23.372h-4.287l-1.335-3.819c-0.184,0.193-7.161,4.214-12.556,4.187
			c-4.946-0.046-8.411-3.294-8.411-8.221V398.193z M621.684,404.794c4.532,0,11.897-2.951,11.897-2.951v-7.978l-12.008,0.877
			c-2.524,0.236-3.337,1.982-3.337,3.791v2.65C618.236,404.053,619.744,404.794,621.684,404.794z"/>
		<path fill="#DBEBF8" d="M644.326,385.09c0-5.013,2.139-8.249,8.432-8.249c4.011,0,13.329,0.542,16.323,1.161v4.002h-15.607
			c-3.442,0-3.525,1.299-3.525,3.231v2.444c0,3.004,1.492,3.104,3.525,3.104h9.122c5.554,0,8.127,3.401,8.127,8.021v3.087
			c0,6.659-4.032,8.005-7.943,8.005c-3.855,0-14.805-0.744-17.108-1.327v-3.901h16.358c0.156,0,3.07,0.248,3.07-2.96v-2.592
			c0-1.928-0.641-3.022-3.07-3.022h-9.088c-5.742,0-8.615-1.902-8.615-8.197V385.09z"/>
		<path fill="#DBEBF8" d="M672.88,378.368l5.829-1.283l1.193-9.042h4.43v9.042h8.867v5.072h-8.867v15.459
			c0,5.168,1.321,6.337,3.29,6.862c0,0,4.646,1.282,5.072,1.282v3.789h-5.946c-4.732,0-8.039-2.951-8.039-11.566v-15.826h-5.829
			V378.368z"/>
	</g>
	<g>
		<path fill="#F2E036" d="M360.372,357.625c-8.275,0-15.014,6.71-15.014,14.989c0,3.07,0.932,5.914,2.522,8.296l4.117-5.058
			c-0.397-1.014-0.633-2.114-0.633-3.266c0,1.152,0.236,2.245,0.633,3.259l3.048-3.738c1.097-1.396,2.729-2.192,4.5-2.192
			c1.662,0,3.261,0.711,4.386,1.953c1.111,1.226,1.657,2.873,1.494,4.519l-0.014,0.147l-0.025,0.145l-0.604,3.713
			c2.731-1.551,4.599-4.45,4.599-7.805c0,3.355-1.868,6.406-4.599,7.958L363.922,386h3.748c4.597-2,7.716-7.632,7.716-13.259
			C375.386,364.461,368.65,357.625,360.372,357.625z"/>
		<path fill="#F2E036" d="M360.5,354.569c1.657,0,3.5-1.345,3.5-3.002v-6.006c0-1.659-1.843-3.002-3.5-3.002
			c-1.657,0-3.5,1.343-3.5,3.002v6.006C357,353.224,358.843,354.569,360.5,354.569z"/>
		<path fill="#F2E036" d="M339.354,369h-6.006c-1.659,0-3.004,2.343-3.004,4.002c0,1.657,1.345,3.998,3.004,3.998h6.006
			c1.655,0,3-2.341,3-3.998C342.354,371.343,341.009,369,339.354,369z"/>
		<path fill="#F2E036" d="M343.385,359.85c0.585,0.581,1.356,0.874,2.125,0.874c0.769,0,1.535-0.287,2.118-0.874
			c1.171-1.175,1.171-3.078,0-4.248l-4.243-4.253c-1.173-1.17-3.078-1.17-4.248,0c-1.17,1.171-1.17,3.075,0,4.248L343.385,359.85z"
			/>
		<path fill="#F2E036" d="M381.603,351.349c-1.175-1.17-3.075-1.17-4.246,0l-4.248,4.253c-1.171,1.17-1.171,3.073,0,4.248
			c0.589,0.581,1.358,0.874,2.127,0.874c0.767,0,1.531-0.287,2.121-0.874l4.246-4.253
			C382.773,354.424,382.773,352.52,381.603,351.349z"/>
		<path fill="#F2E036" d="M373.866,391h-14.132c-0.667,0-1.23-0.979-1.118-1.649l0.248-1.677c-2.912-0.291-5.572-1.455-7.757-3.174
			l-9.203,11.457c-0.56,0.677,0,2.043,0.9,2.043h11.888c0.783,0,1.343,0.514,1.005,1.299l-9.866,23.417
			c-0.399,0.796,0.278,1.469,1.023,1.469c0.306,0,0.622-0.155,0.881-0.449l27.03-31.113C375.326,391.835,374.878,391,373.866,391z"
			/>
		<path fill="#F2E036" d="M359.837,381.539l0.911-5.613c0.076-0.757-0.569-1.311-1.203-1.311c-0.301,0-0.602,0.126-0.819,0.416
			l-3.81,4.672l-3.81,4.67c2.185,1.718,4.845,2.857,7.757,3.149L359.837,381.539z"/>
	</g>
</g>
</svg>
