<?xml version="1.0" encoding="utf-8"?>
<!-- Generator: Adobe Illustrator 16.0.0, SVG Export Plug-In . SVG Version: 6.00 Build 0)  -->
<!DOCTYPE svg PUBLIC "-//W3C//DTD SVG 1.1//EN" "http://www.w3.org/Graphics/SVG/1.1/DTD/svg11.dtd">
<svg version="1.1" id="Layer_1" xmlns="http://www.w3.org/2000/svg" xmlns:xlink="http://www.w3.org/1999/xlink" x="0px" y="0px"
	 width="1024px" height="768px" viewBox="0 0 1024 768" enable-background="new 0 0 1024 768" xml:space="preserve">
<g>
	<path fill="#1B3D4C" d="M316.023,366.931c0-10.095,6.43-13.206,12.866-12.962c0,0,28.606,1.296,30.278,1.525v7.027h-29.419
		c-4.955,0-4.955,2.764-4.955,5.341v16.832l30.418,0.966v7.081l-30.418,0.938v16.832c0.079,5.055,3.144,4.958,5.907,4.958h28.466
		v6.934c-1.475,0.2-29.322,1.618-29.322,1.618c-6.272,0.354-13.822-1.21-13.822-12.551V366.931z"/>
	<path fill="#1B3D4C" d="M368.356,373.124h6.53l2.237,5.771c5.417-3.279,10.249-6.626,17.971-6.626
		c10.56,0,15.486,7.9,15.486,16.632v34.835h-8.771v-34.893c0-5.946-3.314-8.52-7.761-8.52c-7.009,0-10.514,1.765-16.925,5.144
		v38.269h-8.767V373.124z"/>
	<path fill="#1B3D4C" d="M440.564,372.745c12.658,0,19.918,1.289,19.918,18.064c0,7.797-4.192,11.913-13.342,11.913h-19.921
		c0,11.154,2.535,13.453,9.916,13.453c8.48,0,15.25,0.078,22.395-0.967v6.336c-7.561,2.32-16.488,2.671-24.4,2.671
		c-12.866,0-16.678-6.54-16.678-26.021C418.452,375.834,424.821,372.745,440.564,372.745z M446.199,395.047
		c3.805,0,5.517-1.482,5.517-4.425c0-9.021-1.636-9.966-10.872-9.966c-9.751,0-13.653,0.179-13.625,14.391H446.199z"/>
	<path fill="#1B3D4C" d="M469.382,373.124h6.673l2.098,6.386c5.184-3.351,10.285-6.941,17.684-6.941c2.606,0,5.47,0.161,6.669,0.719
		v8.574c-1.199-0.243-4.332-0.487-7.127-0.487c-7.052,0-10.986,1.7-17.226,5.559v36.801h-8.771V373.124z"/>
	<path fill="#1B3D4C" d="M514.294,404.891c-4.195-2.666-5.545-8.892-5.545-13.939c0-12.106,6.247-18.013,16.774-18.013h30.024v6.05
		l-7.149,1.718c1.006,2.026,2.671,3.959,2.671,10.675c0,6.143-2.424,18.156-16.155,18.156h-14.012c-1.525,0-3.895,0.279-3.895,2.686
		c0,2.405,1.779,3.057,3.895,3.057h19.002c8.219,0,13.022,5.112,13.022,13.653v5.86c0,6.146-2.24,14.681-14.727,14.681h-14.298
		c-8.957,0-15.394-4.739-15.394-14.681v-7.643l3.988-5.768c-2.671-1.793-3.902-5.09-3.902-8.279
		C508.595,409.73,510.328,405.801,514.294,404.891z M524.891,441.419h12.551c5.397,0,6.729-2.935,6.729-6.998v-5.03
		c0-4.034-1.038-6.035-6.064-6.042h-16.596c-2.656,0-4.217-0.651-4.217-0.651v11.652
		C517.294,440.778,521.554,441.419,524.891,441.419z M525.57,401.483h8.255c6.924,0,8.635-6.025,8.474-10.532
		c-0.24-6.286-1.808-9.962-8.566-9.962h-7.636c-7.156,0-8.577,5.119-8.577,9.962C517.52,395.619,518.947,401.483,525.57,401.483z"/>
	<path fill="#1B3D4C" d="M568.557,373.124l11.319,38.426c1.546,5.062,5.813,3.705,5.964,3.719l13.303-42.145h9.536l-20.999,66.627
		l-7.092,9.723h-5.785l8.459-25.738c-3.372,0-9.465-1.103-12.425-11.141l-11.717-39.471H568.557z"/>
	<path fill="#1B3D4C" d="M638.903,353.206c6.271,0,16.642,1.088,23.544,2.599v6.938c-0.101,0-13.761-1.052-22.688-1.052
		c-11.327,0-15.472,4.561-15.472,27.163c0,15.63,3.271,26.971,15.485,26.971c10.01,0,22.675-0.695,22.675-0.695v6.938
		c-6.559,1.426-17.215,2.284-23.544,2.241c-17.631-0.043-23.388-14.713-23.388-35.647
		C615.516,366.358,619.934,353.206,638.903,353.206z"/>
	<path fill="#1B3D4C" d="M669.07,405.958c0-7.554,4.553-13.009,13.263-13.009c0,0,19.441,0.1,19.441,0c0,0,0.097-5.431,0-5.527
		c0-5.699-2.906-7.385-7.528-7.385c-6.189,0-15.683,0.562-23.544,1.127v-5.989c6.741-2.094,14.81-2.921,24.246-3.003
		c8.724-0.079,15.597,4.066,15.597,15.106v36.457h-6.687l-2.084-5.957c-0.286,0.301-11.169,6.572-19.585,6.529
		c-7.714-0.071-13.119-5.137-13.119-12.822V405.958z M683.217,416.253c7.07,0,18.558-4.604,18.558-4.604v-12.443l-18.729,1.368
		c-3.938,0.368-5.205,3.093-5.205,5.913v4.135C677.84,415.097,680.192,416.253,683.217,416.253z"/>
	<path fill="#1B3D4C" d="M718.535,385.518c0-7.818,3.337-12.866,13.152-12.866c6.258,0,20.791,0.845,25.463,1.812v6.243h-24.346
		c-5.37,0-5.499,2.026-5.499,5.04v3.812c0,4.687,2.327,4.844,5.499,4.844h14.229c8.663,0,12.676,5.305,12.676,12.512v4.814
		c0,10.389-6.29,12.486-12.39,12.486c-6.014,0-23.093-1.16-26.688-2.069v-6.085h25.518c0.243,0,4.789,0.386,4.789-4.618V407.4
		c0-3.007-0.998-4.715-4.789-4.715h-14.177c-8.956,0-13.438-2.967-13.438-12.787V385.518z"/>
	<path fill="#1B3D4C" d="M763.075,375.032l9.093-2.001l1.861-14.104h6.909v14.104h13.832v7.911h-13.832v24.113
		c0,8.062,2.062,9.884,5.134,10.704c0,0,7.245,2.001,7.91,2.001v5.91h-9.274c-7.382,0-12.54-4.604-12.54-18.042v-24.687h-9.093
		V375.032z"/>
</g>
<g>
	<path fill="#F2E036" d="M274.323,361.848c2.592,0,5.087,1.11,6.841,3.046c1.733,1.912,2.584,4.482,2.331,7.049l-0.021,0.229
		l-0.039,0.226l-0.942,5.792c4.26-2.42,7.174-6.941,7.174-12.175c0-7.747-6.308-14.054-14.055-14.054
		c-7.747,0-14.051,6.308-14.051,14.054c0,1.797,0.369,3.501,0.988,5.083l4.754-5.831
		C269.014,363.09,271.559,361.848,274.323,361.848z"/>
	<path fill="#F2E036" d="M261.561,366.015c0-7.747,6.304-14.054,14.051-14.054c7.747,0,14.055,6.308,14.055,14.054
		c0,5.233-2.914,10.023-7.174,12.443L281.149,387h5.846c7.17-4,12.035-11.936,12.035-20.713c0-12.916-10.506-23.559-23.419-23.559
		c-12.909,0-23.419,10.443-23.419,23.355c0,4.789,1.454,9.212,3.935,12.928l6.422-7.896
		C261.93,369.533,261.561,367.812,261.561,366.015z"/>
	<path fill="#F2E036" d="M276.5,337.91c2.584,0,5.5-2.098,5.5-4.682v-9.369c0-2.588-2.916-4.682-5.5-4.682s-5.5,2.094-5.5,4.682
		v9.369C271,335.812,273.916,337.91,276.5,337.91z"/>
	<path fill="#F2E036" d="M247.507,366.504c0-2.588-2.098-5.504-4.679-5.504h-9.368c-2.588,0-4.686,2.916-4.686,5.504
		c0,2.584,2.098,5.496,4.686,5.496h9.368C245.409,372,247.507,369.088,247.507,366.504z"/>
	<path fill="#F2E036" d="M249.114,346.146c0.913,0.906,2.116,1.364,3.315,1.364s2.395-0.448,3.304-1.364
		c1.826-1.833,1.826-4.8,0-6.626l-6.619-6.633c-1.829-1.826-4.8-1.826-6.626,0s-1.826,4.797,0,6.626L249.114,346.146z"/>
	<path fill="#F2E036" d="M308.728,332.887c-1.833-1.826-4.797-1.826-6.623,0l-6.626,6.633c-1.826,1.826-1.826,4.793,0,6.626
		c0.92,0.906,2.119,1.364,3.318,1.364c1.195,0,2.388-0.448,3.308-1.364l6.623-6.633
		C310.554,337.684,310.554,334.713,308.728,332.887z"/>
	<path fill="#F2E036" d="M246.805,402.104c-0.873,1.056,0,2.896,1.403,2.896h18.543c1.221,0,2.094,1.131,1.568,2.354l-15.39,36.688
		c-0.623,1.242,0.434,2.376,1.597,2.376c0.477,0,0.97-0.203,1.375-0.661l42.163-48.88c0.874-1.228,0.175-2.878-1.403-2.878h-22.044
		c-1.042,0-1.919-1.158-1.743-2.205l0.387-2.43c-4.543-0.454-8.692-2.21-12.1-4.891L246.805,402.104z"/>
	<path fill="#F2E036" d="M274.323,369.179c-0.469,0-0.938,0.197-1.278,0.648l-5.942,7.288c2.158,1.661,4.79,2.692,7.675,2.864
		l1.421-8.756C276.316,370.042,275.311,369.179,274.323,369.179z"/>
	<path fill="#F2E036" d="M261.16,384.4c3.408,2.682,7.557,4.457,12.1,4.911l1.518-9.332c-2.885-0.172-5.517-1.203-7.675-2.864
		L261.16,384.4z"/>
</g>
</svg>
